<mxfile host="app.diagrams.net" modified="2023-10-15T09:49:48.347Z" agent="Mozilla/5.0 (X11; Linux x86_64; rv:109.0) Gecko/20100101 Firefox/115.0" etag="Mny23GAFnf9Xgi41jZw0" version="22.0.4" type="device">
  <diagram name="Página-1" id="H1gAe4TEgG37sk8PaRr4">
    <mxGraphModel dx="1434" dy="728" grid="1" gridSize="10" guides="1" tooltips="1" connect="1" arrows="1" fold="1" page="1" pageScale="1" pageWidth="1169" pageHeight="827" math="0" shadow="0">
      <root>
        <mxCell id="0" />
        <mxCell id="1" parent="0" />
        <mxCell id="3jQ3pkgaZVPvUWSegzT8-1" value="&lt;b&gt;Emisor&lt;/b&gt;" style="sketch=0;pointerEvents=1;shadow=0;dashed=0;html=1;strokeColor=none;labelPosition=center;verticalLabelPosition=bottom;verticalAlign=top;outlineConnect=0;align=center;shape=mxgraph.office.users.user;fillColor=#2072B8;" vertex="1" parent="1">
          <mxGeometry x="190" y="160" width="46" height="50" as="geometry" />
        </mxCell>
        <mxCell id="3jQ3pkgaZVPvUWSegzT8-2" value="&lt;b&gt;Receptor&lt;/b&gt;" style="sketch=0;pointerEvents=1;shadow=0;dashed=0;html=1;strokeColor=none;labelPosition=center;verticalLabelPosition=bottom;verticalAlign=top;outlineConnect=0;align=center;shape=mxgraph.office.users.user;fillColor=#7FBA42;" vertex="1" parent="1">
          <mxGeometry x="633.94" y="160" width="46.06289999999999" height="49.9999" as="geometry" />
        </mxCell>
        <mxCell id="3jQ3pkgaZVPvUWSegzT8-31" value="" style="edgeStyle=orthogonalEdgeStyle;rounded=0;orthogonalLoop=1;jettySize=auto;html=1;" edge="1" parent="1" source="3jQ3pkgaZVPvUWSegzT8-7">
          <mxGeometry relative="1" as="geometry">
            <mxPoint x="550" y="280" as="targetPoint" />
          </mxGeometry>
        </mxCell>
        <mxCell id="3jQ3pkgaZVPvUWSegzT8-32" value="" style="edgeStyle=orthogonalEdgeStyle;rounded=0;orthogonalLoop=1;jettySize=auto;html=1;" edge="1" parent="1" source="3jQ3pkgaZVPvUWSegzT8-7">
          <mxGeometry relative="1" as="geometry">
            <mxPoint x="330" y="280" as="targetPoint" />
          </mxGeometry>
        </mxCell>
        <mxCell id="3jQ3pkgaZVPvUWSegzT8-7" value="&lt;b&gt;&lt;font color=&quot;#cc0000&quot;&gt;Atacante&lt;/font&gt;&lt;/b&gt;" style="sketch=0;pointerEvents=1;shadow=0;dashed=0;html=1;strokeColor=none;labelPosition=center;verticalLabelPosition=bottom;verticalAlign=top;outlineConnect=0;align=center;shape=mxgraph.office.users.user;fillColor=#DA4026;" vertex="1" parent="1">
          <mxGeometry x="420.5" y="340" width="46" height="50" as="geometry" />
        </mxCell>
        <mxCell id="3jQ3pkgaZVPvUWSegzT8-22" value="" style="edgeStyle=orthogonalEdgeStyle;rounded=0;orthogonalLoop=1;jettySize=auto;html=1;entryX=0;entryY=0.5;entryDx=0;entryDy=0;" edge="1" parent="1" target="3jQ3pkgaZVPvUWSegzT8-10">
          <mxGeometry relative="1" as="geometry">
            <mxPoint x="308" y="270" as="sourcePoint" />
            <mxPoint x="408" y="270" as="targetPoint" />
          </mxGeometry>
        </mxCell>
        <mxCell id="3jQ3pkgaZVPvUWSegzT8-9" value="&lt;b&gt;&lt;font style=&quot;font-size: 14px;&quot;&gt;Algoritmo de Encriptación&lt;/font&gt;&lt;/b&gt;" style="rounded=0;whiteSpace=wrap;html=1;fillColor=#ffe6cc;strokeColor=#d79b00;" vertex="1" parent="1">
          <mxGeometry x="190" y="240" width="120" height="60" as="geometry" />
        </mxCell>
        <mxCell id="3jQ3pkgaZVPvUWSegzT8-10" value="&lt;b&gt;&lt;font style=&quot;font-size: 14px;&quot;&gt;Algoritmo de Desencriptación&lt;/font&gt;&lt;/b&gt;" style="rounded=0;whiteSpace=wrap;html=1;fillColor=#ffe6cc;strokeColor=#d79b00;" vertex="1" parent="1">
          <mxGeometry x="560" y="240" width="120" height="60" as="geometry" />
        </mxCell>
        <mxCell id="3jQ3pkgaZVPvUWSegzT8-17" value="" style="edgeStyle=orthogonalEdgeStyle;rounded=0;orthogonalLoop=1;jettySize=auto;html=1;" edge="1" parent="1" target="3jQ3pkgaZVPvUWSegzT8-9">
          <mxGeometry relative="1" as="geometry">
            <mxPoint x="130" y="270" as="sourcePoint" />
          </mxGeometry>
        </mxCell>
        <mxCell id="3jQ3pkgaZVPvUWSegzT8-18" value="&lt;b&gt;Texto plano&lt;/b&gt;" style="text;strokeColor=none;align=center;fillColor=none;html=1;verticalAlign=middle;whiteSpace=wrap;rounded=0;" vertex="1" parent="1">
          <mxGeometry x="100" y="230" width="60" height="30" as="geometry" />
        </mxCell>
        <mxCell id="3jQ3pkgaZVPvUWSegzT8-24" value="&lt;font color=&quot;#cc0000&quot;&gt;&lt;b&gt;Texto cifrado&lt;/b&gt;&lt;/font&gt;" style="text;strokeColor=none;align=center;fillColor=none;html=1;verticalAlign=middle;whiteSpace=wrap;rounded=0;" vertex="1" parent="1">
          <mxGeometry x="400" y="240" width="87" height="30" as="geometry" />
        </mxCell>
        <mxCell id="3jQ3pkgaZVPvUWSegzT8-25" value="" style="edgeStyle=orthogonalEdgeStyle;rounded=0;orthogonalLoop=1;jettySize=auto;html=1;" edge="1" parent="1">
          <mxGeometry relative="1" as="geometry">
            <mxPoint x="681" y="270" as="sourcePoint" />
            <mxPoint x="741" y="270" as="targetPoint" />
          </mxGeometry>
        </mxCell>
        <mxCell id="3jQ3pkgaZVPvUWSegzT8-26" value="&lt;b&gt;Texto plano&lt;/b&gt;" style="text;strokeColor=none;align=center;fillColor=none;html=1;verticalAlign=middle;whiteSpace=wrap;rounded=0;" vertex="1" parent="1">
          <mxGeometry x="710" y="230" width="60" height="30" as="geometry" />
        </mxCell>
        <mxCell id="3jQ3pkgaZVPvUWSegzT8-44" value="" style="edgeStyle=orthogonalEdgeStyle;rounded=0;orthogonalLoop=1;jettySize=auto;html=1;" edge="1" parent="1" source="3jQ3pkgaZVPvUWSegzT8-34" target="3jQ3pkgaZVPvUWSegzT8-9">
          <mxGeometry relative="1" as="geometry" />
        </mxCell>
        <mxCell id="3jQ3pkgaZVPvUWSegzT8-34" value="&lt;font style=&quot;font-size: 18px;&quot;&gt;K&lt;/font&gt;A" style="points=[[0,0.5,0],[0.24,0,0],[0.5,0.28,0],[0.995,0.475,0],[0.5,0.72,0],[0.24,1,0]];verticalLabelPosition=bottom;sketch=0;html=1;verticalAlign=top;aspect=fixed;align=center;pointerEvents=1;shape=mxgraph.cisco19.key;fillColor=#005073;strokeColor=none;" vertex="1" parent="1">
          <mxGeometry x="225" y="128" width="50" height="22.5" as="geometry" />
        </mxCell>
        <mxCell id="3jQ3pkgaZVPvUWSegzT8-45" value="" style="edgeStyle=orthogonalEdgeStyle;rounded=0;orthogonalLoop=1;jettySize=auto;html=1;" edge="1" parent="1" source="3jQ3pkgaZVPvUWSegzT8-37" target="3jQ3pkgaZVPvUWSegzT8-10">
          <mxGeometry relative="1" as="geometry" />
        </mxCell>
        <mxCell id="3jQ3pkgaZVPvUWSegzT8-37" value="&lt;font style=&quot;font-size: 18px;&quot;&gt;K&lt;/font&gt;B" style="points=[[0,0.5,0],[0.24,0,0],[0.5,0.28,0],[0.995,0.475,0],[0.5,0.72,0],[0.24,1,0]];verticalLabelPosition=bottom;sketch=0;html=1;verticalAlign=top;aspect=fixed;align=center;pointerEvents=1;shape=mxgraph.cisco19.key;fillColor=#005073;strokeColor=none;" vertex="1" parent="1">
          <mxGeometry x="595" y="128" width="50" height="22.5" as="geometry" />
        </mxCell>
        <mxCell id="3jQ3pkgaZVPvUWSegzT8-40" value="&lt;font style=&quot;font-size: 14px;&quot;&gt;Clave de encriptación de emisor A&lt;/font&gt;" style="text;strokeColor=none;align=center;fillColor=none;html=1;verticalAlign=middle;whiteSpace=wrap;rounded=0;" vertex="1" parent="1">
          <mxGeometry x="290" y="160" width="60" height="30" as="geometry" />
        </mxCell>
        <mxCell id="3jQ3pkgaZVPvUWSegzT8-42" value="&lt;font style=&quot;font-size: 14px;&quot;&gt;Clave de encriptación de receptor B&lt;/font&gt;" style="text;strokeColor=none;align=center;fillColor=none;html=1;verticalAlign=middle;whiteSpace=wrap;rounded=0;" vertex="1" parent="1">
          <mxGeometry x="510" y="160" width="90" height="30" as="geometry" />
        </mxCell>
      </root>
    </mxGraphModel>
  </diagram>
</mxfile>
